<svg height="512pt" viewBox="1 1 511.99998 511.99998" width="512pt" xmlns="http://www.w3.org/2000/svg"><path d="m512 256c0 71.34375-29.183594 135.878906-76.277344 182.304688-13.550781 13.363281-28.589844 25.222656-44.835937 35.316406-39.175781 24.335937-85.378907 38.378906-134.886719 38.378906s-95.710938-14.042969-134.886719-38.378906c-22.820312-14.167969-43.246093-31.839844-60.53125-52.246094-37.792969-44.605469-60.582031-102.335938-60.582031-165.375 0-141.386719 114.613281-256 256-256s256 114.613281 256 256zm0 0" fill="#31474c"/><path d="m347.949219 293.898438h50.15625v159.808593h-50.15625zm0 0" fill="#d6d6d6"/><path d="m95.085938 202.46875h50.15625v245.03125h-50.15625zm0 0" fill="#d6d6d6"/><path d="m289.4375 58.632812v124.507813l-36.566406 29.085937c-5.945313 4.730469-9.410156 11.914063-9.410156 19.511719v46.628907c0 13.773437 11.164062 24.933593 24.933593 24.933593h175.832031c13.769532 0 24.933594-11.160156 24.933594-24.933593v-219.734376c0-16.066406-13.027344-29.09375-29.09375-29.09375h-121.535156c-16.070312 0-29.09375 13.027344-29.09375 29.09375zm0 0" fill="#e6e6e6"/><path d="m182.214844 250.011719h-118.878906c-16.800782 0-30.421876-13.617188-30.421876-30.417969v-159.632812c0-16.800782 13.621094-30.421876 30.421876-30.421876h118.878906c16.800781 0 30.421875 13.621094 30.421875 30.421876v159.632812c0 16.800781-13.621094 30.417969-30.421875 30.417969zm0 0" fill="#e6e6e6"/><g fill="#18282d"><path d="m438.855469 72.378906c0 10.964844-8.886719 19.855469-19.851563 19.855469s-19.851562-8.890625-19.851562-19.855469 8.886718-19.851562 19.851562-19.851562 19.851563 8.886718 19.851563 19.851562zm0 0"/><path d="m438.855469 135.074219c0 10.964843-8.886719 19.851562-19.851563 19.851562s-19.851562-8.886719-19.851562-19.851562c0-10.964844 8.886718-19.851563 19.851562-19.851563s19.851563 8.886719 19.851563 19.851563zm0 0"/><path d="m438.855469 197.769531c0 10.960938-8.886719 19.851563-19.851563 19.851563s-19.851562-8.890625-19.851562-19.851563c0-10.964843 8.886718-19.855469 19.851562-19.855469s19.851563 8.890626 19.851563 19.855469zm0 0"/><path d="m438.855469 260.460938c0 10.964843-8.886719 19.855468-19.851563 19.855468s-19.851562-8.890625-19.851562-19.855468c0-10.964844 8.886718-19.851563 19.851562-19.851563s19.851563 8.886719 19.851563 19.851563zm0 0"/><path d="m375.117188 72.378906c0 10.964844-8.886719 19.855469-19.851563 19.855469s-19.851563-8.890625-19.851563-19.855469 8.886719-19.851562 19.851563-19.851562 19.851563 8.886718 19.851563 19.851562zm0 0"/><path d="m375.117188 135.074219c0 10.964843-8.886719 19.851562-19.851563 19.851562s-19.851563-8.886719-19.851563-19.851562c0-10.964844 8.886719-19.851563 19.851563-19.851563s19.851563 8.886719 19.851563 19.851563zm0 0"/><path d="m375.117188 197.769531c0 10.960938-8.886719 19.851563-19.851563 19.851563s-19.851563-8.890625-19.851563-19.851563c0-10.964843 8.886719-19.855469 19.851563-19.855469s19.851563 8.890626 19.851563 19.855469zm0 0"/><path d="m375.117188 260.460938c0 10.964843-8.886719 19.855468-19.851563 19.855468s-19.851563-8.890625-19.851563-19.855468c0-10.964844 8.886719-19.851563 19.851563-19.851563s19.851563 8.886719 19.851563 19.851563zm0 0"/><path d="m174.496094 77.082031c0 10.964844-8.886719 19.851563-19.851563 19.851563-10.964843 0-19.851562-8.886719-19.851562-19.851563 0-10.964843 8.886719-19.851562 19.851562-19.851562 10.964844 0 19.851563 8.886719 19.851563 19.851562zm0 0"/><path d="m174.496094 139.777344c0 10.964844-8.886719 19.851562-19.851563 19.851562-10.964843 0-19.851562-8.886718-19.851562-19.851562s8.886719-19.855469 19.851562-19.855469c10.964844 0 19.851563 8.890625 19.851563 19.855469zm0 0"/><path d="m174.496094 202.46875c0 10.964844-8.886719 19.855469-19.851563 19.855469-10.964843 0-19.851562-8.890625-19.851562-19.855469s8.886719-19.851562 19.851562-19.851562c10.964844 0 19.851563 8.886718 19.851563 19.851562zm0 0"/><path d="m110.757812 77.082031c0 10.964844-8.886718 19.851563-19.851562 19.851563s-19.851562-8.886719-19.851562-19.851563c0-10.964843 8.886718-19.851562 19.851562-19.851562s19.851562 8.886719 19.851562 19.851562zm0 0"/><path d="m110.757812 139.777344c0 10.964844-8.886718 19.851562-19.851562 19.851562s-19.851562-8.886718-19.851562-19.851562 8.886718-19.855469 19.851562-19.855469 19.851562 8.890625 19.851562 19.855469zm0 0"/><path d="m110.757812 202.46875c0 10.964844-8.886718 19.855469-19.851562 19.855469s-19.851562-8.890625-19.851562-19.855469 8.886718-19.851562 19.851562-19.851562 19.851562 8.886718 19.851562 19.851562zm0 0"/><path d="m309.289062 260.460938c0 10.964843-8.886718 19.855468-19.851562 19.855468s-19.855469-8.890625-19.855469-19.855468c0-10.964844 8.890625-19.851563 19.855469-19.851563s19.851562 8.886719 19.851562 19.851563zm0 0"/></g><path d="m182.855469 421.375v52.246094h-61.742188c-11.515625-7.148438-22.421875-15.191406-32.621093-24.03125-10.019532-8.664063-19.351563-18.109375-27.910157-28.214844zm0 0" fill="#d6d6d6"/><path d="m435.722656 421.375v16.929688c-3.949218 3.894531-8.015625 7.65625-12.214844 11.285156-10.199218 8.839844-21.105468 16.875-32.621093 24.03125h-80.550781v-52.246094zm0 0" fill="#d6d6d6"/><path d="m88.492188 449.589844h94.363281v24.03125h-61.742188c-11.515625-7.148438-22.421875-15.191406-32.621093-24.03125zm0 0" fill="#b3b3b3"/><path d="m423.507812 449.589844c-10.199218 8.839844-21.105468 16.875-32.621093 24.03125h-80.550781v-24.03125zm0 0" fill="#b3b3b3"/></svg>